<svg height="512" viewBox="0 0 60 41" width="512" xmlns="http://www.w3.org/2000/svg"><g id="Page-1" fill="none" fill-rule="evenodd"><g id="009---Beans" fill-rule="nonzero"><path id="Shape" d="m20.11 26.67c0 6.57-5.09 6.66-5.21 13.08-.33-.06-.66-.14-.99-.23-7.39-1.98-12.91-9.97-12.91-19.52 0-11.05 7.39-20 16.5-20 .5382842-.00218933 1.0761241.03121687 1.61.1.332852.02891357.6635224.07901515.99.15-.12 6.42-5.21 6.5-5.21 13.08 0 6.67 5.22 6.67 5.22 13.34z" fill="#cf976a"/><path id="Shape" d="m34 20c.1395296 6.180811-2.3934633 12.1214995-6.95 16.3-2.6285051 2.3519484-6.0230157 3.6670991-9.55 3.7-.5382842.0021893-1.0761241-.0312169-1.61-.1-.332852-.0289136-.6635224-.0790152-.99-.15.12-6.42 5.21-6.51 5.21-13.08 0-6.67-5.22-6.67-5.22-13.34 0-6.58 5.09-6.66 5.21-13.08.3343114.06103334.6648527.14116456.99.24 4.1624551 1.22788953 7.6774047 4.03913117 9.79 7.83 2.0748363 3.5404962 3.1529384 7.5764681 3.12 11.68z" fill="#cb8252"/><path id="Shape" d="m5 21c-.55228475 0-1-.4477153-1-1 0-7.6 4.058-14.339 9.867-16.377.3387354-.12484532.718464-.05742413.9935173.17639997.2750533.23382409.402725.59774631.3340387.95216162-.0686863.35441532-.323066.64429529-.665556.75843841-5.021 1.759-8.529 7.718-8.529 14.49 0 .5522847-.44771525 1-1 1z" fill="#fdd7ad"/><path id="Shape" d="m56.47 9.54c-4.63 4.45-8.28.92-12.93 5.57-4.72 4.71-1.03 8.4-5.75 13.11-3.7 3.69-6.82 1.7-5.1 11.16-.37-.1-.73-.22-1.08-.35-1.6815833-.6079386-3.229934-1.5349117-4.56-2.73 4.5565367-4.1785005 7.0895296-10.119189 6.95-16.3.0329384-4.1035319-1.0451637-8.1395038-3.12-11.68 7.68-6.26 17.97-6.75 23.93-.8.3797131.37590018.733838.77679635 1.06 1.2.21.26.41.54.6.82z" fill="#a56a43"/><path id="Shape" d="m52.33 33.33c-5.39 5.39-12.53 7.59-18.58 6.31-.36-.07-.71-.16-1.06-.26-1.72-9.46 1.4-7.47 5.1-11.16 4.72-4.71 1.03-8.4 5.75-13.11 4.65-4.65 8.3-1.12 12.93-5.57.19.28.37.56.54.85 3.82 6.63 2.08 16.18-4.68 22.94z" fill="#805333"/><path id="Shape" d="m37.188 37.028c-.5522847 0-1-.4477153-1-1s.4477153-1 1-1c4.4071458-.1566918 8.576751-2.0368204 11.612-5.236.3923789-.3789722 1.0160848-.3735524 1.4018186.0121814s.3911536 1.0094397.0121814 1.4018186c-3.4105659 3.573695-8.0885453 5.6645285-13.026 5.822z" fill="#603e26"/><path id="Shape" d="m21.11 26.67c.0169677 2.69345-.9911981 5.2925157-2.82 7.27-1.5346479 1.6054184-2.3938416 3.7390825-2.4 5.96-.332852-.0289136-.6635224-.0790152-.99-.15-.33-.06-.66-.14-.99-.23.0910285-2.5332381 1.0881274-4.9496947 2.81-6.81 1.28-1.64 2.39-3.06 2.39-6.04s-1.11-4.41-2.4-6.05c-3.7599021-4.1289626-3.7599021-10.4410374 0-14.57 1.26-1.6 2.39-3.04 2.4-5.95.332852.02891357.6635224.07901515.99.15.3343114.06103334.6648527.14116456.99.24-.0953277 2.52933666-1.0919986 4.9412094-2.81 6.8-1.28 1.64-2.39 3.05-2.39 6.04s1.11 4.41 2.4 6.05c1.8305072 1.9844286 2.8385405 4.5903019 2.82 7.29z" fill="#805333"/><path id="Shape" d="m57.01 10.39c-1.8520984 1.7325026-4.2658428 2.7405959-6.8 2.84-2.07.26-3.85.48-5.96 2.59s-2.34 3.9-2.59 5.97c-.108367 2.69494-1.2381457 5.2476678-3.16 7.14-.8965082.8646296-1.8976063 1.6137735-2.98 2.23-2.01 1.22-3.05 1.86-1.77 8.48-.36-.07-.71-.16-1.06-.26-.37-.1-.73-.22-1.08-.35-1.09-6.41.07-7.88 2.87-9.58.9453117-.5339726 1.81897-1.1858561 2.6-1.94 2.12-2.11 2.34-3.9 2.59-5.97.2634461-5.574073 4.7256737-10.0319684 10.3-10.29 2.2160651-.0658797 4.3246113-.9700529 5.9-2.53.21.26.41.54.6.82s.37.56.54.85z" fill="#603e26"/><path id="Shape" d="m59 41h-58c-.55228475 0-1-.4477153-1-1s.44771525-1 1-1h58c.5522847 0 1 .4477153 1 1s-.4477153 1-1 1z" fill="#f0c419"/></g></g></svg>