<?xml version="1.0"?>
<svg xmlns="http://www.w3.org/2000/svg" viewBox="0 0 64 64" width="512" height="512"><title>team-Meeting-teamwork-group-presentation</title><g id="Expand"><rect x="7" y="14" width="13" height="2"/><rect x="7" y="10" width="2" height="2"/><rect x="11" y="10" width="9" height="2"/><path d="M61,44H57V38.736a6.984,6.984,0,0,0-1-12.051V22a4,4,0,0,0-4-4H51V15a5.006,5.006,0,0,0-5-5H24V7a1,1,0,0,0-1-1H4A1,1,0,0,0,3,7V19a1,1,0,0,0,1,1H8v5.264A6.984,6.984,0,0,0,9,37.315V42a4,4,0,0,0,4,4h1v3a5.006,5.006,0,0,0,5,5H41v3a1,1,0,0,0,1,1H61a1,1,0,0,0,1-1V45A1,1,0,0,0,61,44Zm-6,0H51.333L51,43.75V39.705a6.927,6.927,0,0,0,4,0Zm3-11a5,5,0,1,1-5-5A5.006,5.006,0,0,1,58,33ZM54,22v4.08a6.7,6.7,0,0,0-3,.215V24a1,1,0,0,0-1-1H46V20h6A2,2,0,0,1,54,22ZM42.5,23a1.5,1.5,0,0,1,0-3H44v3ZM5,8H22V18H18a1,1,0,0,0-1,1v1l-2.4-1.8A1,1,0,0,0,14,18H5Zm5,12h3.667l.333.25V24.3a6.927,6.927,0,0,0-4,0ZM7,31a5,5,0,1,1,5,5A5.006,5.006,0,0,1,7,31Zm4,11V37.92a6.7,6.7,0,0,0,3-.215V40a1,1,0,0,0,1,1h4v3H13A2,2,0,0,1,11,42Zm11.5-1a1.5,1.5,0,0,1,0,3H21V41ZM41,45v7H19a3,3,0,0,1-3-3V46h6.5a3.5,3.5,0,0,0,0-7H16V36.736a6.984,6.984,0,0,0,0-11.472V21.75l1.4,1.05A1,1,0,0,0,19,22V20h4a1,1,0,0,0,1-1V12H46a3,3,0,0,1,3,3v3H42.5a3.5,3.5,0,0,0,0,7H49v2.264a6.984,6.984,0,0,0,0,11.472V42.25L47.6,41.2A1,1,0,0,0,46,42v2H42A1,1,0,0,0,41,45ZM60,56H43V46h4a1,1,0,0,0,1-1V44l2.4,1.8a1,1,0,0,0,.6.2h9Z"/><rect x="45" y="52" width="13" height="2"/><rect x="45" y="48" width="2" height="2"/><rect x="49" y="48" width="9" height="2"/><path d="M32,27c-3.925,0-7,2.2-7,5s3.075,5,7,5,7-2.2,7-5S35.925,27,32,27Zm-5,5c0-1.421,1.749-2.649,4-2.936v5.872C28.749,34.649,27,33.421,27,32Zm6,2.936V29.064c2.251.287,4,1.515,4,2.936S35.251,34.649,33,34.936Z"/><rect x="21" y="56" width="15" height="2"/><rect x="28" y="6" width="15" height="2"/><rect x="45" y="6" width="2" height="2"/><rect x="17" y="56" width="2" height="2"/></g></svg>
